<svg xmlns="http://www.w3.org/2000/svg" xmlns:xlink="http://www.w3.org/1999/xlink" width="500" zoomAndPan="magnify" viewBox="0 0 375 374.999991" height="500" preserveAspectRatio="xMidYMid meet" version="1.0"><defs><g/><clipPath id="776e187a9a"><path d="M 188.046875 165.675781 L 301.296875 165.675781 L 301.296875 191 L 188.046875 191 Z M 188.046875 165.675781 " clip-rule="nonzero"/></clipPath><clipPath id="52d23412da"><path d="M 2 0.640625 L 31 0.640625 L 31 56 L 2 56 Z M 2 0.640625 " clip-rule="nonzero"/></clipPath><clipPath id="3a2252469f"><path d="M 36 7 L 78 7 L 78 60.878906 L 36 60.878906 Z M 36 7 " clip-rule="nonzero"/></clipPath><clipPath id="74e030dd08"><rect x="0" width="105" y="0" height="61"/></clipPath><clipPath id="24fb6ae18a"><rect x="0" width="89" y="0" height="14"/></clipPath></defs><rect x="-37.5" width="450" fill="#ffffff" y="-37.499999" height="449.999989" fill-opacity="1"/><rect x="-37.5" width="450" fill="#000000" y="-37.499999" height="449.999989" fill-opacity="1"/><g clip-path="url(#776e187a9a)"><path fill="#ffffff" d="M 301.046875 165.675781 C 299.320312 170.347656 296.699219 174.460938 293.175781 178.019531 C 289.65625 181.574219 285.417969 184.289062 280.457031 186.15625 C 275.5 188.027344 269.894531 188.941406 263.640625 188.90625 C 257.390625 188.871094 250.632812 187.59375 243.375 185.078125 C 238.777344 183.5 234.539062 182.402344 230.65625 181.792969 C 226.777344 181.179688 223.09375 181 219.609375 181.253906 C 216.121094 181.503906 212.746094 182.152344 209.476562 183.191406 C 206.203125 184.234375 202.847656 185.546875 199.398438 187.125 C 198.246094 187.628906 197.203125 188.132812 196.269531 188.636719 C 195.335938 189.140625 194.4375 189.480469 193.574219 189.660156 C 192.714844 189.839844 191.796875 189.785156 190.828125 189.5 C 190.148438 189.296875 189.390625 188.917969 188.554688 188.363281 C 188.464844 188.382812 188.367188 188.390625 188.265625 188.394531 C 188.203125 188.453125 188.136719 188.507812 188.0625 188.554688 L 188.0625 189.132812 C 188.21875 189.234375 188.34375 189.367188 188.4375 189.519531 C 189.339844 190.0625 190.171875 190.417969 190.933594 190.574219 C 191.976562 190.792969 192.964844 190.808594 193.898438 190.628906 C 194.832031 190.453125 195.785156 190.128906 196.753906 189.660156 C 197.726562 189.191406 198.820312 188.671875 200.042969 188.097656 C 203.203125 186.660156 206.382812 185.4375 209.582031 184.433594 C 212.78125 183.425781 216.121094 182.78125 219.609375 182.492188 C 223.09375 182.207031 226.757812 182.382812 230.601562 183.03125 C 234.445312 183.675781 238.597656 184.933594 243.054688 186.804688 C 248.296875 188.957031 253.957031 190.164062 260.03125 190.414062 C 266.101562 190.667969 271.921875 189.949219 277.492188 188.257812 C 283.0625 186.570312 288.019531 183.875 292.371094 180.175781 C 296.714844 176.472656 299.789062 171.710938 301.585938 165.890625 Z M 301.046875 165.675781 " fill-opacity="1" fill-rule="nonzero"/></g><g transform="matrix(1, 0, 0, 1, 85, 158)"><g clip-path="url(#74e030dd08)"><g clip-path="url(#52d23412da)"><g fill="#ffffff" fill-opacity="1"><g transform="translate(1.300397, 37.845731)"><g><path d="M 28.59375 5.640625 C 28.789062 5.640625 28.953125 5.707031 29.078125 5.84375 C 29.210938 5.976562 29.28125 6.140625 29.28125 6.328125 C 29.28125 6.523438 29.207031 6.6875 29.0625 6.8125 C 28.925781 6.945312 28.757812 7.015625 28.5625 7.015625 C 27.332031 6.992188 25.9375 7.269531 24.375 7.84375 C 22.820312 8.425781 21.203125 9.164062 19.515625 10.0625 C 17.828125 10.957031 16.1875 11.851562 14.59375 12.75 C 12.46875 13.945312 10.546875 14.976562 8.828125 15.84375 C 7.117188 16.71875 5.671875 17.15625 4.484375 17.15625 C 3.835938 17.15625 3.296875 17 2.859375 16.6875 C 1.742188 15.84375 1.515625 14 2.171875 11.15625 C 2.578125 9.414062 3.0625 7.40625 3.625 5.125 C 4.195312 2.84375 4.820312 0.414062 5.5 -2.15625 C 6.175781 -4.726562 6.867188 -7.332031 7.578125 -9.96875 C 8.296875 -12.613281 9.003906 -15.15625 9.703125 -17.59375 C 10.640625 -20.851562 11.453125 -23.597656 12.140625 -25.828125 C 12.828125 -28.066406 13.414062 -29.894531 13.90625 -31.3125 C 14.40625 -32.738281 14.820312 -33.835938 15.15625 -34.609375 C 15.5 -35.378906 15.789062 -35.925781 16.03125 -36.25 C 16.28125 -36.582031 16.484375 -36.769531 16.640625 -36.8125 C 16.796875 -36.863281 16.945312 -36.878906 17.09375 -36.859375 C 17.550781 -36.785156 17.816406 -36.441406 17.890625 -35.828125 C 17.960938 -35.210938 17.945312 -34.25 17.84375 -32.9375 C 17.820312 -32.75 17.738281 -32.59375 17.59375 -32.46875 C 17.445312 -32.351562 17.28125 -32.304688 17.09375 -32.328125 C 16.894531 -32.328125 16.726562 -32.398438 16.59375 -32.546875 C 16.46875 -32.691406 16.414062 -32.859375 16.4375 -33.046875 C 16.488281 -33.484375 16.523438 -33.882812 16.546875 -34.25 C 16.253906 -33.59375 15.859375 -32.578125 15.359375 -31.203125 C 14.867188 -29.828125 14.25 -27.925781 13.5 -25.5 C 12.75 -23.070312 11.832031 -19.953125 10.75 -16.140625 C 10.070312 -13.773438 9.390625 -11.316406 8.703125 -8.765625 C 8.015625 -6.222656 7.34375 -3.710938 6.6875 -1.234375 C 6.039062 1.234375 5.445312 3.554688 4.90625 5.734375 C 4.363281 7.921875 3.910156 9.832031 3.546875 11.46875 C 3.328125 12.4375 3.210938 13.203125 3.203125 13.765625 C 3.191406 14.335938 3.238281 14.753906 3.34375 15.015625 C 3.457031 15.285156 3.570312 15.46875 3.6875 15.5625 C 4.03125 15.800781 4.554688 15.84375 5.265625 15.6875 C 5.972656 15.53125 6.796875 15.234375 7.734375 14.796875 C 8.679688 14.367188 9.6875 13.863281 10.75 13.28125 C 11.8125 12.707031 12.863281 12.128906 13.90625 11.546875 C 15.539062 10.609375 17.234375 9.679688 18.984375 8.765625 C 20.734375 7.847656 22.425781 7.085938 24.0625 6.484375 C 25.707031 5.878906 27.21875 5.597656 28.59375 5.640625 Z M 28.59375 5.640625 "/></g></g></g></g><g fill="#ffffff" fill-opacity="1"><g transform="translate(25.839407, 37.845731)"><g><path d="M 4.84375 -19.796875 C 5.3125 -19.460938 5.546875 -18.992188 5.546875 -18.390625 C 5.546875 -17.710938 5.265625 -17.007812 4.703125 -16.28125 C 4.148438 -15.5625 3.5625 -14.960938 2.9375 -14.484375 C 2.8125 -14.390625 2.664062 -14.34375 2.5 -14.34375 C 2.28125 -14.34375 2.097656 -14.4375 1.953125 -14.625 C 1.835938 -14.769531 1.789062 -14.9375 1.8125 -15.125 C 1.832031 -15.320312 1.925781 -15.484375 2.09375 -15.609375 C 2.65625 -16.035156 3.140625 -16.519531 3.546875 -17.0625 C 3.953125 -17.613281 4.15625 -18.054688 4.15625 -18.390625 C 4.15625 -18.515625 4.109375 -18.613281 4.015625 -18.6875 C 3.847656 -18.800781 3.75 -18.953125 3.71875 -19.140625 C 3.695312 -19.335938 3.75 -19.507812 3.875 -19.65625 C 3.96875 -19.820312 4.109375 -19.914062 4.296875 -19.9375 C 4.492188 -19.96875 4.675781 -19.921875 4.84375 -19.796875 Z M 4.84375 -19.796875 "/></g></g></g><g fill="#ffffff" fill-opacity="1"><g transform="translate(33.186637, 37.845731)"><g><path d="M 15.171875 -8.03125 C 15.335938 -7.957031 15.453125 -7.832031 15.515625 -7.65625 C 15.578125 -7.476562 15.570312 -7.300781 15.5 -7.125 C 15.039062 -6.1875 14.535156 -5.242188 13.984375 -4.296875 C 13.441406 -3.359375 12.875 -2.5 12.28125 -1.71875 C 11.695312 -0.9375 11.085938 -0.3125 10.453125 0.15625 C 9.828125 0.632812 9.203125 0.875 8.578125 0.875 C 8.460938 0.875 8.332031 0.859375 8.1875 0.828125 C 6.5625 0.515625 5.554688 -1.65625 5.171875 -5.6875 C 4.765625 -5.125 4.289062 -4.5 3.75 -3.8125 C 3.207031 -3.125 2.632812 -2.445312 2.03125 -1.78125 C 1.925781 -1.675781 1.765625 -1.519531 1.546875 -1.3125 C 1.335938 -1.113281 1.085938 -0.953125 0.796875 -0.828125 C 0.503906 -0.710938 0.210938 -0.726562 -0.078125 -0.875 C -0.648438 -1.082031 -0.925781 -1.707031 -0.90625 -2.75 C -0.90625 -3.351562 -0.789062 -4.097656 -0.5625 -4.984375 C -0.332031 -5.878906 -0.0078125 -6.78125 0.40625 -7.6875 C 0.832031 -8.59375 1.328125 -9.394531 1.890625 -10.09375 C 2.460938 -10.800781 3.097656 -11.273438 3.796875 -11.515625 C 4.234375 -11.679688 4.765625 -11.707031 5.390625 -11.59375 C 6.015625 -11.488281 6.664062 -11.039062 7.34375 -10.25 C 7.46875 -10.101562 7.523438 -9.929688 7.515625 -9.734375 C 7.503906 -9.546875 7.425781 -9.390625 7.28125 -9.265625 C 7.132812 -9.148438 6.960938 -9.097656 6.765625 -9.109375 C 6.578125 -9.117188 6.421875 -9.195312 6.296875 -9.34375 C 5.722656 -10.019531 5.222656 -10.335938 4.796875 -10.296875 C 4.367188 -10.265625 4.015625 -10.140625 3.734375 -9.921875 C 3.203125 -9.535156 2.71875 -8.976562 2.28125 -8.25 C 1.84375 -7.53125 1.476562 -6.769531 1.1875 -5.96875 C 0.90625 -5.175781 0.703125 -4.4375 0.578125 -3.75 C 0.453125 -3.0625 0.414062 -2.5625 0.46875 -2.25 C 0.539062 -2.289062 0.617188 -2.347656 0.703125 -2.421875 C 0.785156 -2.492188 0.878906 -2.59375 0.984375 -2.71875 C 1.703125 -3.507812 2.363281 -4.296875 2.96875 -5.078125 C 3.570312 -5.867188 4.09375 -6.566406 4.53125 -7.171875 C 4.644531 -7.335938 4.753906 -7.5 4.859375 -7.65625 C 4.972656 -7.8125 5.078125 -7.953125 5.171875 -8.078125 C 5.367188 -8.316406 5.625 -8.390625 5.9375 -8.296875 C 6.25 -8.222656 6.414062 -8.015625 6.4375 -7.671875 C 6.507812 -6.109375 6.632812 -4.847656 6.8125 -3.890625 C 7 -2.941406 7.203125 -2.226562 7.421875 -1.75 C 7.640625 -1.28125 7.84375 -0.960938 8.03125 -0.796875 C 8.226562 -0.628906 8.375 -0.546875 8.46875 -0.546875 C 8.925781 -0.441406 9.660156 -0.910156 10.671875 -1.953125 C 11.691406 -2.992188 12.878906 -4.914062 14.234375 -7.71875 C 14.328125 -7.90625 14.460938 -8.03125 14.640625 -8.09375 C 14.828125 -8.15625 15.003906 -8.132812 15.171875 -8.03125 Z M 15.171875 -8.03125 "/></g></g></g><g clip-path="url(#3a2252469f)"><g fill="#ffffff" fill-opacity="1"><g transform="translate(46.650519, 37.845731)"><g><path d="M 30.5625 -21.359375 C 30.675781 -21.210938 30.722656 -21.039062 30.703125 -20.84375 C 30.679688 -20.65625 30.582031 -20.5 30.40625 -20.375 C 30.113281 -20.1875 29.835938 -20.203125 29.578125 -20.421875 C 29.265625 -20.535156 28.546875 -20.617188 27.421875 -20.671875 C 26.296875 -20.722656 24.890625 -20.753906 23.203125 -20.765625 C 21.515625 -20.773438 19.65625 -20.765625 17.625 -20.734375 C 15.601562 -20.710938 13.523438 -20.679688 11.390625 -20.640625 C 9.253906 -20.609375 7.179688 -20.570312 5.171875 -20.53125 C 4.429688 -17.394531 3.648438 -13.984375 2.828125 -10.296875 C 2.003906 -6.617188 1.191406 -2.882812 0.390625 0.90625 C -0.640625 5.875 -1.4375 9.953125 -2 13.140625 C -2.570312 16.328125 -2.941406 18.632812 -3.109375 20.0625 C -3.066406 20.0625 -3.019531 20.070312 -2.96875 20.09375 C -2.769531 20.144531 -2.632812 20.257812 -2.5625 20.4375 C -2.5 20.613281 -2.503906 20.789062 -2.578125 20.96875 C -2.710938 21.375 -2.867188 21.75 -3.046875 22.09375 C -3.234375 22.445312 -3.484375 22.625 -3.796875 22.625 C -3.867188 22.625 -3.957031 22.613281 -4.0625 22.59375 C -4.394531 22.46875 -4.578125 22.207031 -4.609375 21.8125 C -4.648438 21.414062 -4.625 20.867188 -4.53125 20.171875 C -4.425781 19.148438 -4.207031 17.6875 -3.875 15.78125 C -3.582031 14 -3.207031 11.910156 -2.75 9.515625 C -2.289062 7.128906 -1.757812 4.515625 -1.15625 1.671875 C -0.363281 -2.191406 0.453125 -6.03125 1.296875 -9.84375 C 2.148438 -13.65625 2.960938 -17.203125 3.734375 -20.484375 C 2.566406 -20.460938 1.460938 -20.4375 0.421875 -20.40625 C -0.609375 -20.382812 -1.546875 -20.363281 -2.390625 -20.34375 C -4.003906 -20.300781 -5.414062 -20.265625 -6.625 -20.234375 C -7.832031 -20.210938 -8.691406 -20.203125 -9.203125 -20.203125 C -9.390625 -20.203125 -9.550781 -20.265625 -9.6875 -20.390625 C -9.820312 -20.523438 -9.890625 -20.691406 -9.890625 -20.890625 C -9.890625 -21.078125 -9.820312 -21.238281 -9.6875 -21.375 C -9.550781 -21.507812 -9.390625 -21.578125 -9.203125 -21.578125 C -8.691406 -21.578125 -7.835938 -21.59375 -6.640625 -21.625 C -5.441406 -21.664062 -4.035156 -21.710938 -2.421875 -21.765625 C -1.265625 -21.785156 -0.144531 -21.804688 0.9375 -21.828125 C 2.03125 -21.847656 3.082031 -21.875 4.09375 -21.90625 C 4.457031 -23.445312 4.8125 -24.898438 5.15625 -26.265625 C 5.507812 -27.628906 5.84375 -28.878906 6.15625 -30.015625 C 6.207031 -30.203125 6.316406 -30.34375 6.484375 -30.4375 C 6.648438 -30.539062 6.816406 -30.566406 6.984375 -30.515625 C 7.179688 -30.472656 7.328125 -30.363281 7.421875 -30.1875 C 7.515625 -30.019531 7.539062 -29.84375 7.5 -29.65625 C 6.914062 -27.5 6.25 -24.925781 5.5 -21.9375 C 9.269531 -22.007812 12.492188 -22.0625 15.171875 -22.09375 C 17.847656 -22.132812 20.09375 -22.15625 21.90625 -22.15625 C 23.71875 -22.15625 25.179688 -22.128906 26.296875 -22.078125 C 27.421875 -22.035156 28.269531 -21.984375 28.84375 -21.921875 C 29.425781 -21.859375 29.835938 -21.78125 30.078125 -21.6875 C 30.328125 -21.59375 30.488281 -21.484375 30.5625 -21.359375 Z M 30.5625 -21.359375 "/></g></g></g></g><g fill="#ffffff" fill-opacity="1"><g transform="translate(51.464217, 37.845731)"><g><path d="M 12.234375 -8.078125 C 12.398438 -7.972656 12.492188 -7.820312 12.515625 -7.625 C 12.546875 -7.4375 12.515625 -7.269531 12.421875 -7.125 C 10.992188 -5.144531 9.6875 -3.507812 8.5 -2.21875 C 7.320312 -0.9375 6.140625 0.128906 4.953125 0.984375 C 4.066406 1.609375 3.1875 1.921875 2.3125 1.921875 C 1.632812 1.921875 1.046875 1.738281 0.546875 1.375 C 0.203125 1.132812 -0.128906 0.707031 -0.453125 0.09375 C -0.773438 -0.519531 -0.945312 -1.410156 -0.96875 -2.578125 C -1 -3.753906 -0.710938 -5.296875 -0.109375 -7.203125 C -0.109375 -7.203125 -0.109375 -7.210938 -0.109375 -7.234375 C 0.617188 -9.554688 1.46875 -11.328125 2.4375 -12.546875 C 3.414062 -13.765625 4.253906 -14.382812 4.953125 -14.40625 C 5.515625 -14.425781 5.878906 -14.1875 6.046875 -13.6875 C 6.304688 -12.988281 5.988281 -11.992188 5.09375 -10.703125 C 4.207031 -9.410156 2.894531 -8.039062 1.15625 -6.59375 C 0.625 -4.90625 0.367188 -3.582031 0.390625 -2.625 C 0.421875 -1.664062 0.554688 -0.972656 0.796875 -0.546875 C 1.035156 -0.128906 1.226562 0.132812 1.375 0.25 C 2.101562 0.78125 3.03125 0.632812 4.15625 -0.1875 C 5.269531 -0.957031 6.394531 -1.960938 7.53125 -3.203125 C 8.664062 -4.441406 9.910156 -6.015625 11.265625 -7.921875 C 11.378906 -8.066406 11.53125 -8.15625 11.71875 -8.1875 C 11.914062 -8.226562 12.085938 -8.191406 12.234375 -8.078125 Z M 4.703125 -12.890625 C 4.441406 -12.722656 4.082031 -12.363281 3.625 -11.8125 C 3.164062 -11.269531 2.691406 -10.484375 2.203125 -9.453125 C 3.078125 -10.296875 3.691406 -11.007812 4.046875 -11.59375 C 4.410156 -12.1875 4.628906 -12.617188 4.703125 -12.890625 Z M 4.703125 -12.890625 "/></g></g></g><g fill="#ffffff" fill-opacity="1"><g transform="translate(61.99645, 37.845731)"><g><path d="M 10.640625 -33.921875 C 10.953125 -33.460938 10.957031 -32.53125 10.65625 -31.125 C 10.351562 -29.726562 9.734375 -28 8.796875 -25.9375 C 7.859375 -23.875 6.601562 -21.585938 5.03125 -19.078125 C 5.007812 -19.054688 4.984375 -19.03125 4.953125 -19 C 4.328125 -16.445312 3.707031 -13.84375 3.09375 -11.1875 C 2.476562 -8.53125 1.890625 -5.921875 1.328125 -3.359375 C 0.773438 -0.804688 0.269531 1.59375 -0.1875 3.84375 C -0.644531 6.101562 -1.035156 8.113281 -1.359375 9.875 C -1.679688 11.644531 -1.914062 13.0625 -2.0625 14.125 C -2.039062 14.125 -2.015625 14.125 -1.984375 14.125 C -1.796875 14.195312 -1.660156 14.316406 -1.578125 14.484375 C -1.492188 14.648438 -1.488281 14.832031 -1.5625 15.03125 C -1.726562 15.488281 -1.898438 15.898438 -2.078125 16.265625 C -2.265625 16.640625 -2.515625 16.828125 -2.828125 16.828125 C -2.898438 16.828125 -2.984375 16.816406 -3.078125 16.796875 C -3.296875 16.722656 -3.453125 16.570312 -3.546875 16.34375 C -3.640625 16.113281 -3.648438 15.65625 -3.578125 14.96875 C -3.503906 14.28125 -3.347656 13.222656 -3.109375 11.796875 C -2.679688 9.191406 -2.03125 5.789062 -1.15625 1.59375 C -0.53125 -1.351562 0.125 -4.351562 0.8125 -7.40625 C 1.5 -10.457031 2.179688 -13.398438 2.859375 -16.234375 C 3.535156 -19.066406 4.1875 -21.644531 4.8125 -23.96875 C 4.9375 -24.425781 5.117188 -25.0625 5.359375 -25.875 C 5.597656 -26.695312 5.875 -27.578125 6.1875 -28.515625 C 6.5 -29.460938 6.847656 -30.367188 7.234375 -31.234375 C 7.617188 -32.109375 8.015625 -32.828125 8.421875 -33.390625 C 8.835938 -33.960938 9.253906 -34.285156 9.671875 -34.359375 C 10.078125 -34.429688 10.398438 -34.285156 10.640625 -33.921875 Z M 6.234375 -23.859375 C 7.390625 -26.023438 8.203125 -27.832031 8.671875 -29.28125 C 9.140625 -30.726562 9.410156 -31.78125 9.484375 -32.4375 C 9.148438 -31.957031 8.691406 -31.046875 8.109375 -29.703125 C 7.523438 -28.367188 6.898438 -26.421875 6.234375 -23.859375 Z M 6.234375 -23.859375 "/></g></g></g><g fill="#ffffff" fill-opacity="1"><g transform="translate(67.497819, 37.845731)"><g><path d="M 10.609375 -8.25 C 10.773438 -8.15625 10.875 -8.007812 10.90625 -7.8125 C 10.945312 -7.625 10.921875 -7.445312 10.828125 -7.28125 C 10.367188 -6.550781 9.785156 -5.738281 9.078125 -4.84375 C 8.378906 -3.957031 7.617188 -3.109375 6.796875 -2.296875 C 5.984375 -1.492188 5.171875 -0.828125 4.359375 -0.296875 C 3.554688 0.234375 2.816406 0.5 2.140625 0.5 C 1.847656 0.5 1.59375 0.453125 1.375 0.359375 C 0.550781 -0.00390625 0.0976562 -0.878906 0.015625 -2.265625 C -0.0664062 -3.648438 0.21875 -5.609375 0.875 -8.140625 C 0.914062 -8.335938 1.019531 -8.484375 1.1875 -8.578125 C 1.363281 -8.671875 1.535156 -8.695312 1.703125 -8.65625 C 1.890625 -8.601562 2.03125 -8.492188 2.125 -8.328125 C 2.226562 -8.160156 2.253906 -7.988281 2.203125 -7.8125 C 1.816406 -6.269531 1.578125 -5.046875 1.484375 -4.140625 C 1.390625 -3.234375 1.367188 -2.550781 1.421875 -2.09375 C 1.484375 -1.632812 1.570312 -1.328125 1.6875 -1.171875 C 1.8125 -1.015625 1.890625 -0.9375 1.921875 -0.9375 C 2.234375 -0.789062 2.691406 -0.894531 3.296875 -1.25 C 3.898438 -1.601562 4.570312 -2.125 5.3125 -2.8125 C 6.0625 -3.5 6.816406 -4.289062 7.578125 -5.1875 C 8.335938 -6.09375 9.019531 -7.039062 9.625 -8.03125 C 9.75 -8.207031 9.898438 -8.3125 10.078125 -8.34375 C 10.265625 -8.382812 10.441406 -8.351562 10.609375 -8.25 Z M 2.0625 -11.15625 C 1.582031 -11.175781 1.332031 -11.3125 1.3125 -11.5625 C 1.300781 -11.820312 1.410156 -12.082031 1.640625 -12.34375 C 1.867188 -12.613281 2.109375 -12.796875 2.359375 -12.890625 C 2.742188 -13.003906 3.023438 -12.976562 3.203125 -12.8125 C 3.378906 -12.644531 3.460938 -12.425781 3.453125 -12.15625 C 3.441406 -11.894531 3.320312 -11.65625 3.09375 -11.4375 C 2.863281 -11.21875 2.519531 -11.125 2.0625 -11.15625 Z M 2.0625 -11.15625 "/></g></g></g><g fill="#ffffff" fill-opacity="1"><g transform="translate(76.65471, 37.845731)"><g><path d="M 12.234375 -8.078125 C 12.398438 -7.972656 12.492188 -7.820312 12.515625 -7.625 C 12.546875 -7.4375 12.515625 -7.269531 12.421875 -7.125 C 10.992188 -5.144531 9.6875 -3.507812 8.5 -2.21875 C 7.320312 -0.9375 6.140625 0.128906 4.953125 0.984375 C 4.066406 1.609375 3.1875 1.921875 2.3125 1.921875 C 1.632812 1.921875 1.046875 1.738281 0.546875 1.375 C 0.203125 1.132812 -0.128906 0.707031 -0.453125 0.09375 C -0.773438 -0.519531 -0.945312 -1.410156 -0.96875 -2.578125 C -1 -3.753906 -0.710938 -5.296875 -0.109375 -7.203125 C -0.109375 -7.203125 -0.109375 -7.210938 -0.109375 -7.234375 C 0.617188 -9.554688 1.46875 -11.328125 2.4375 -12.546875 C 3.414062 -13.765625 4.253906 -14.382812 4.953125 -14.40625 C 5.515625 -14.425781 5.878906 -14.1875 6.046875 -13.6875 C 6.304688 -12.988281 5.988281 -11.992188 5.09375 -10.703125 C 4.207031 -9.410156 2.894531 -8.039062 1.15625 -6.59375 C 0.625 -4.90625 0.367188 -3.582031 0.390625 -2.625 C 0.421875 -1.664062 0.554688 -0.972656 0.796875 -0.546875 C 1.035156 -0.128906 1.226562 0.132812 1.375 0.25 C 2.101562 0.78125 3.03125 0.632812 4.15625 -0.1875 C 5.269531 -0.957031 6.394531 -1.960938 7.53125 -3.203125 C 8.664062 -4.441406 9.910156 -6.015625 11.265625 -7.921875 C 11.378906 -8.066406 11.53125 -8.15625 11.71875 -8.1875 C 11.914062 -8.226562 12.085938 -8.191406 12.234375 -8.078125 Z M 4.703125 -12.890625 C 4.441406 -12.722656 4.082031 -12.363281 3.625 -11.8125 C 3.164062 -11.269531 2.691406 -10.484375 2.203125 -9.453125 C 3.078125 -10.296875 3.691406 -11.007812 4.046875 -11.59375 C 4.410156 -12.1875 4.628906 -12.617188 4.703125 -12.890625 Z M 4.703125 -12.890625 "/></g></g></g><g fill="#ffffff" fill-opacity="1"><g transform="translate(87.186943, 37.845731)"><g><path d="M 15.890625 -8.21875 C 16.054688 -8.125 16.175781 -7.984375 16.25 -7.796875 C 16.320312 -7.617188 16.3125 -7.445312 16.21875 -7.28125 C 15.757812 -6.289062 15.195312 -5.175781 14.53125 -3.9375 C 13.875 -2.707031 13.171875 -1.472656 12.421875 -0.234375 C 11.671875 1.003906 10.910156 2.132812 10.140625 3.15625 C 9.367188 4.1875 8.617188 5.019531 7.890625 5.65625 C 7.171875 6.300781 6.519531 6.625 5.9375 6.625 C 5.769531 6.625 5.613281 6.585938 5.46875 6.515625 C 4.957031 6.328125 4.625 5.867188 4.46875 5.140625 C 4.3125 4.421875 4.332031 3.382812 4.53125 2.03125 C 4.863281 -0.40625 5.753906 -3.859375 7.203125 -8.328125 C 7.179688 -8.328125 7.160156 -8.320312 7.140625 -8.3125 C 7.128906 -8.300781 7.113281 -8.296875 7.09375 -8.296875 C 6.613281 -7.953125 6.035156 -7.597656 5.359375 -7.234375 C 4.679688 -6.878906 3.976562 -6.640625 3.25 -6.515625 C 2.53125 -6.390625 1.84375 -6.546875 1.1875 -6.984375 C 0.269531 -7.640625 -0.195312 -8.546875 -0.21875 -9.703125 C -0.238281 -10.859375 0.195312 -12.125 1.09375 -13.5 C 1.375 -13.9375 1.75 -14.421875 2.21875 -14.953125 C 2.695312 -15.484375 3.191406 -15.894531 3.703125 -16.1875 C 4.222656 -16.476562 4.691406 -16.488281 5.109375 -16.21875 C 5.328125 -16.09375 5.488281 -15.882812 5.59375 -15.59375 C 5.695312 -15.3125 5.6875 -14.867188 5.5625 -14.265625 C 5.445312 -13.660156 5.160156 -12.847656 4.703125 -11.828125 C 4.242188 -10.816406 3.554688 -9.503906 2.640625 -7.890625 C 3.191406 -7.816406 3.8125 -7.972656 4.5 -8.359375 C 5.195312 -8.742188 5.804688 -9.109375 6.328125 -9.453125 C 6.835938 -9.785156 7.257812 -10.03125 7.59375 -10.1875 C 7.9375 -10.34375 8.253906 -10.3125 8.546875 -10.09375 C 8.804688 -9.882812 8.910156 -9.617188 8.859375 -9.296875 C 8.816406 -8.984375 8.769531 -8.742188 8.71875 -8.578125 C 7.925781 -6.066406 7.3125 -3.976562 6.875 -2.3125 C 6.445312 -0.644531 6.148438 0.691406 5.984375 1.703125 C 5.828125 2.710938 5.75 3.472656 5.75 3.984375 C 5.75 4.492188 5.785156 4.828125 5.859375 4.984375 C 5.929688 5.140625 5.96875 5.226562 5.96875 5.25 C 6.257812 5.300781 6.859375 4.835938 7.765625 3.859375 C 8.671875 2.878906 9.75 1.40625 11 -0.5625 C 12.257812 -2.53125 13.578125 -4.960938 14.953125 -7.859375 C 15.046875 -8.046875 15.179688 -8.171875 15.359375 -8.234375 C 15.546875 -8.296875 15.722656 -8.289062 15.890625 -8.21875 Z M 1.296875 -10.6875 C 1.160156 -10.175781 1.117188 -9.753906 1.171875 -9.421875 C 1.234375 -9.097656 1.328125 -8.84375 1.453125 -8.65625 C 2.222656 -10.007812 2.804688 -11.109375 3.203125 -11.953125 C 3.597656 -12.796875 3.867188 -13.445312 4.015625 -13.90625 C 4.160156 -14.363281 4.242188 -14.6875 4.265625 -14.875 C 4.003906 -14.726562 3.671875 -14.453125 3.265625 -14.046875 C 2.867188 -13.640625 2.484375 -13.144531 2.109375 -12.5625 C 1.742188 -11.976562 1.472656 -11.351562 1.296875 -10.6875 Z M 1.296875 -10.6875 "/></g></g></g></g></g><g transform="matrix(1, 0, 0, 1, 193, 196)"><g clip-path="url(#24fb6ae18a)"><g fill="#ffffff" fill-opacity="1"><g transform="translate(0.325192, 9.892765)"><g><path d="M 3.046875 0.140625 C 2.648438 0.140625 2.269531 0.0859375 1.90625 -0.015625 C 1.539062 -0.128906 1.210938 -0.285156 0.921875 -0.484375 L 0.921875 -1.875 C 1.117188 -1.363281 1.421875 -0.972656 1.828125 -0.703125 C 2.234375 -0.441406 2.660156 -0.3125 3.109375 -0.3125 C 3.546875 -0.3125 3.910156 -0.457031 4.203125 -0.75 C 4.503906 -1.050781 4.65625 -1.414062 4.65625 -1.84375 C 4.65625 -2.132812 4.59375 -2.378906 4.46875 -2.578125 C 4.351562 -2.785156 4.164062 -2.976562 3.90625 -3.15625 C 3.65625 -3.34375 3.289062 -3.546875 2.8125 -3.765625 C 2.15625 -4.066406 1.675781 -4.382812 1.375 -4.71875 C 1.070312 -5.050781 0.921875 -5.453125 0.921875 -5.921875 C 0.921875 -6.328125 1.015625 -6.6875 1.203125 -7 C 1.398438 -7.3125 1.664062 -7.550781 2 -7.71875 C 2.332031 -7.894531 2.695312 -7.984375 3.09375 -7.984375 C 3.4375 -7.984375 3.769531 -7.9375 4.09375 -7.84375 C 4.414062 -7.75 4.71875 -7.613281 5 -7.4375 L 5 -6.203125 C 4.820312 -6.617188 4.546875 -6.941406 4.171875 -7.171875 C 3.804688 -7.410156 3.4375 -7.53125 3.0625 -7.53125 C 2.625 -7.53125 2.269531 -7.390625 2 -7.109375 C 1.738281 -6.828125 1.609375 -6.492188 1.609375 -6.109375 C 1.609375 -5.828125 1.6875 -5.582031 1.84375 -5.375 C 2.007812 -5.175781 2.207031 -5.007812 2.4375 -4.875 C 2.664062 -4.738281 2.988281 -4.570312 3.40625 -4.375 C 3.832031 -4.164062 4.179688 -3.972656 4.453125 -3.796875 C 4.734375 -3.617188 4.960938 -3.390625 5.140625 -3.109375 C 5.328125 -2.828125 5.421875 -2.488281 5.421875 -2.09375 C 5.421875 -1.632812 5.3125 -1.238281 5.09375 -0.90625 C 4.875 -0.570312 4.582031 -0.3125 4.21875 -0.125 C 3.863281 0.0507812 3.472656 0.140625 3.046875 0.140625 Z M 3.046875 0.140625 "/></g></g></g><g fill="#ffffff" fill-opacity="1"><g transform="translate(9.048306, 9.892765)"><g><path d="M 0.953125 0 C 0.953125 0.0195312 1 0.00390625 1.09375 -0.046875 C 1.1875 -0.109375 1.269531 -0.21875 1.34375 -0.375 C 1.414062 -0.53125 1.453125 -0.757812 1.453125 -1.0625 L 1.453125 -6.78125 C 1.453125 -7.09375 1.414062 -7.320312 1.34375 -7.46875 C 1.28125 -7.625 1.203125 -7.726562 1.109375 -7.78125 C 1.015625 -7.84375 0.96875 -7.863281 0.96875 -7.84375 L 2.78125 -7.84375 C 2.78125 -7.863281 2.734375 -7.84375 2.640625 -7.78125 C 2.554688 -7.726562 2.472656 -7.625 2.390625 -7.46875 C 2.316406 -7.320312 2.28125 -7.09375 2.28125 -6.78125 L 2.28125 -1.0625 C 2.28125 -0.757812 2.316406 -0.53125 2.390625 -0.375 C 2.472656 -0.21875 2.554688 -0.113281 2.640625 -0.0625 C 2.734375 -0.0078125 2.78125 0.0078125 2.78125 0 Z M 0.953125 0 "/></g></g></g><g fill="#ffffff" fill-opacity="1"><g transform="translate(15.30941, 9.892765)"><g><path d="M 4.78125 0.125 C 4.0625 0.125 3.390625 -0.0234375 2.765625 -0.328125 C 2.148438 -0.628906 1.65625 -1.082031 1.28125 -1.6875 C 0.914062 -2.300781 0.734375 -3.046875 0.734375 -3.921875 C 0.734375 -4.703125 0.910156 -5.398438 1.265625 -6.015625 C 1.617188 -6.628906 2.113281 -7.109375 2.75 -7.453125 C 3.394531 -7.804688 4.132812 -7.984375 4.96875 -7.984375 C 5.5 -7.984375 5.976562 -7.921875 6.40625 -7.796875 C 6.84375 -7.679688 7.1875 -7.550781 7.4375 -7.40625 L 7.4375 -6.140625 C 7.195312 -6.546875 6.84375 -6.875 6.375 -7.125 C 5.914062 -7.375 5.441406 -7.5 4.953125 -7.5 C 4.273438 -7.5 3.6875 -7.359375 3.1875 -7.078125 C 2.6875 -6.796875 2.300781 -6.390625 2.03125 -5.859375 C 1.769531 -5.335938 1.640625 -4.722656 1.640625 -4.015625 C 1.640625 -3.242188 1.789062 -2.582031 2.09375 -2.03125 C 2.40625 -1.488281 2.816406 -1.082031 3.328125 -0.8125 C 3.835938 -0.539062 4.394531 -0.40625 5 -0.40625 C 5.269531 -0.40625 5.550781 -0.4375 5.84375 -0.5 C 6.132812 -0.5625 6.40625 -0.65625 6.65625 -0.78125 L 6.65625 -2.65625 C 6.65625 -2.894531 6.617188 -3.078125 6.546875 -3.203125 C 6.472656 -3.335938 6.390625 -3.429688 6.296875 -3.484375 C 6.203125 -3.546875 6.15625 -3.570312 6.15625 -3.5625 L 7.984375 -3.5625 C 7.984375 -3.570312 7.9375 -3.550781 7.84375 -3.5 C 7.75 -3.457031 7.664062 -3.375 7.59375 -3.25 C 7.519531 -3.125 7.484375 -2.945312 7.484375 -2.71875 L 7.484375 -0.65625 C 7.078125 -0.40625 6.640625 -0.210938 6.171875 -0.078125 C 5.703125 0.0546875 5.238281 0.125 4.78125 0.125 Z M 4.78125 0.125 "/></g></g></g><g fill="#ffffff" fill-opacity="1"><g transform="translate(26.585717, 9.892765)"><g><path d="M 8.3125 -7.84375 C 8.207031 -7.820312 8.101562 -7.738281 8 -7.59375 C 7.894531 -7.445312 7.84375 -7.1875 7.84375 -6.8125 L 7.84375 0.3125 L 2 -6.484375 L 2 -1.03125 C 2 -0.664062 2.0625 -0.40625 2.1875 -0.25 C 2.320312 -0.101562 2.453125 -0.0195312 2.578125 0 L 0.96875 0 C 1.070312 -0.0195312 1.175781 -0.101562 1.28125 -0.25 C 1.394531 -0.40625 1.453125 -0.664062 1.453125 -1.03125 L 1.453125 -6.734375 C 1.453125 -6.992188 1.363281 -7.226562 1.1875 -7.4375 C 1.019531 -7.65625 0.800781 -7.789062 0.53125 -7.84375 L 1.953125 -7.84375 L 7.296875 -1.609375 L 7.296875 -6.8125 C 7.296875 -7.394531 7.097656 -7.738281 6.703125 -7.84375 Z M 8.3125 -7.84375 "/></g></g></g><g fill="#ffffff" fill-opacity="1"><g transform="translate(38.409146, 9.892765)"><g><path d="M 2.40625 -3.046875 L 1.671875 -1.234375 C 1.554688 -0.953125 1.5 -0.71875 1.5 -0.53125 C 1.5 -0.28125 1.613281 -0.101562 1.84375 0 L 0.21875 0 C 0.289062 0 0.398438 -0.0703125 0.546875 -0.21875 C 0.691406 -0.375 0.859375 -0.675781 1.046875 -1.125 L 4.03125 -8.21875 L 6.984375 -1.09375 C 7.148438 -0.6875 7.3125 -0.40625 7.46875 -0.25 C 7.625 -0.09375 7.75 -0.0078125 7.84375 0 L 5.9375 0 C 6.132812 -0.09375 6.234375 -0.234375 6.234375 -0.421875 C 6.234375 -0.578125 6.171875 -0.804688 6.046875 -1.109375 L 5.25 -3.046875 Z M 5.0625 -3.515625 L 3.828125 -6.5625 L 2.59375 -3.515625 Z M 5.0625 -3.515625 "/></g></g></g><g fill="#ffffff" fill-opacity="1"><g transform="translate(48.955967, 9.892765)"><g><path d="M 1.6875 -7.390625 C 1.351562 -7.390625 1.078125 -7.320312 0.859375 -7.1875 C 0.640625 -7.0625 0.476562 -6.898438 0.375 -6.703125 L 0.53125 -7.84375 L 5.9375 -7.84375 L 6.109375 -6.703125 C 6.003906 -6.898438 5.84375 -7.0625 5.625 -7.1875 C 5.40625 -7.320312 5.128906 -7.390625 4.796875 -7.390625 L 3.65625 -7.390625 L 3.65625 -1.0625 C 3.65625 -0.757812 3.691406 -0.523438 3.765625 -0.359375 C 3.835938 -0.203125 3.921875 -0.0976562 4.015625 -0.046875 C 4.109375 0.00390625 4.15625 0.0195312 4.15625 0 L 2.34375 0 C 2.34375 0.0195312 2.382812 0.00390625 2.46875 -0.046875 C 2.5625 -0.0976562 2.644531 -0.203125 2.71875 -0.359375 C 2.789062 -0.515625 2.828125 -0.75 2.828125 -1.0625 L 2.828125 -7.390625 Z M 1.6875 -7.390625 "/></g></g></g><g fill="#ffffff" fill-opacity="1"><g transform="translate(57.952637, 9.892765)"><g><path d="M 7.046875 -2.71875 C 7.046875 -2.125 6.929688 -1.609375 6.703125 -1.171875 C 6.472656 -0.742188 6.148438 -0.414062 5.734375 -0.1875 C 5.328125 0.03125 4.847656 0.140625 4.296875 0.140625 C 3.390625 0.140625 2.6875 -0.109375 2.1875 -0.609375 C 1.695312 -1.117188 1.453125 -1.816406 1.453125 -2.703125 L 1.453125 -6.78125 C 1.453125 -7.09375 1.414062 -7.320312 1.34375 -7.46875 C 1.28125 -7.625 1.203125 -7.726562 1.109375 -7.78125 C 1.023438 -7.84375 0.984375 -7.863281 0.984375 -7.84375 L 2.765625 -7.84375 C 2.765625 -7.863281 2.71875 -7.84375 2.625 -7.78125 C 2.539062 -7.726562 2.460938 -7.625 2.390625 -7.46875 C 2.316406 -7.320312 2.28125 -7.109375 2.28125 -6.828125 L 2.28125 -2.703125 C 2.28125 -1.960938 2.457031 -1.390625 2.8125 -0.984375 C 3.164062 -0.585938 3.6875 -0.390625 4.375 -0.390625 C 5 -0.390625 5.492188 -0.582031 5.859375 -0.96875 C 6.222656 -1.351562 6.40625 -1.921875 6.40625 -2.671875 L 6.40625 -6.78125 C 6.40625 -7.09375 6.367188 -7.320312 6.296875 -7.46875 C 6.222656 -7.625 6.140625 -7.726562 6.046875 -7.78125 C 5.953125 -7.84375 5.90625 -7.863281 5.90625 -7.84375 L 7.546875 -7.84375 C 7.546875 -7.863281 7.5 -7.84375 7.40625 -7.78125 C 7.320312 -7.726562 7.238281 -7.625 7.15625 -7.46875 C 7.082031 -7.320312 7.046875 -7.09375 7.046875 -6.78125 Z M 7.046875 -2.71875 "/></g></g></g><g fill="#ffffff" fill-opacity="1"><g transform="translate(68.773014, 9.892765)"><g><path d="M 3.265625 -3.953125 C 3.609375 -3.953125 3.910156 -4.03125 4.171875 -4.1875 C 4.429688 -4.351562 4.628906 -4.566406 4.765625 -4.828125 C 4.898438 -5.085938 4.96875 -5.363281 4.96875 -5.65625 C 4.96875 -5.957031 4.898438 -6.238281 4.765625 -6.5 C 4.640625 -6.757812 4.445312 -6.972656 4.1875 -7.140625 C 3.9375 -7.304688 3.625 -7.390625 3.25 -7.390625 L 2.28125 -7.390625 L 2.28125 -1.046875 C 2.28125 -0.742188 2.316406 -0.515625 2.390625 -0.359375 C 2.472656 -0.203125 2.554688 -0.0976562 2.640625 -0.046875 C 2.734375 -0.00390625 2.78125 0.0078125 2.78125 0 L 0.96875 0 C 0.96875 0.0078125 1.015625 -0.0078125 1.109375 -0.0625 C 1.203125 -0.113281 1.28125 -0.210938 1.34375 -0.359375 C 1.414062 -0.515625 1.453125 -0.742188 1.453125 -1.046875 L 1.453125 -6.75 C 1.453125 -7.0625 1.414062 -7.296875 1.34375 -7.453125 C 1.28125 -7.617188 1.203125 -7.726562 1.109375 -7.78125 C 1.015625 -7.84375 0.96875 -7.863281 0.96875 -7.84375 L 3.234375 -7.84375 C 3.828125 -7.84375 4.3125 -7.742188 4.6875 -7.546875 C 5.070312 -7.359375 5.347656 -7.109375 5.515625 -6.796875 C 5.691406 -6.492188 5.78125 -6.160156 5.78125 -5.796875 C 5.78125 -5.492188 5.707031 -5.191406 5.5625 -4.890625 C 5.414062 -4.597656 5.207031 -4.34375 4.9375 -4.125 C 4.675781 -3.914062 4.363281 -3.769531 4 -3.6875 L 3.828125 -3.65625 L 5.828125 -1.09375 C 6.097656 -0.800781 6.316406 -0.570312 6.484375 -0.40625 C 6.660156 -0.25 6.785156 -0.144531 6.859375 -0.09375 C 6.941406 -0.0390625 6.992188 -0.0078125 7.015625 0 L 5.6875 0 L 2.578125 -3.953125 Z M 3.265625 -3.953125 "/></g></g></g><g fill="#ffffff" fill-opacity="1"><g transform="translate(78.544765, 9.892765)"><g><path d="M 0.96875 0 C 0.96875 0.0195312 1.015625 0.00390625 1.109375 -0.046875 C 1.203125 -0.109375 1.28125 -0.222656 1.34375 -0.390625 C 1.414062 -0.566406 1.453125 -0.816406 1.453125 -1.140625 L 1.453125 -6.734375 C 1.453125 -7.046875 1.414062 -7.285156 1.34375 -7.453125 C 1.28125 -7.617188 1.203125 -7.726562 1.109375 -7.78125 C 1.015625 -7.84375 0.96875 -7.863281 0.96875 -7.84375 L 5.09375 -7.84375 L 5.09375 -6.703125 C 4.957031 -7.160156 4.546875 -7.390625 3.859375 -7.390625 L 2.28125 -7.390625 L 2.28125 -4.15625 L 4.25 -4.15625 C 4.394531 -4.15625 4.519531 -4.175781 4.625 -4.21875 C 4.738281 -4.269531 4.820312 -4.320312 4.875 -4.375 C 4.925781 -4.425781 4.957031 -4.460938 4.96875 -4.484375 L 4.96875 -3.375 C 4.957031 -3.394531 4.925781 -3.429688 4.875 -3.484375 C 4.820312 -3.535156 4.742188 -3.582031 4.640625 -3.625 C 4.535156 -3.675781 4.40625 -3.703125 4.25 -3.703125 L 2.28125 -3.703125 L 2.28125 -0.453125 L 4.0625 -0.453125 C 4.40625 -0.453125 4.695312 -0.519531 4.9375 -0.65625 C 5.1875 -0.800781 5.363281 -0.984375 5.46875 -1.203125 L 5.265625 0 Z M 0.96875 0 "/></g></g></g></g></g></svg>